<svg xmlns="http://www.w3.org/2000/svg"  viewBox="0 0 100 100" width="100px" height="100px"><path d="M70.333,10.701c-1.015,0-2.259,0-3.641,0.223c-4.811,0.387-8.659,4.51-8.659,9.37c0,2.686,1.139,5.106,2.951,6.821 c-0.769,1.368-1.212,2.934-1.212,4.585c0,0.179,0.017,0.354,0.027,0.53c-0.978,0.118-1.978,0.282-3.003,0.502 c-0.59-3.458-2.282-5.644-3.604-6.872c-2.363-2.316-5.628-3.541-9.449-3.541c-8.005,0-18.2,5.318-27.305,14.257 C7.106,45.91,1.968,55.85,1.968,64.566c0,18.663,21.577,28.732,41.879,28.732c26.275,0,44.586-15.856,44.586-30.086 c0-2.504-0.537-4.863-1.547-7.016c0.823,0.236,1.688,0.37,2.586,0.37c3.964,0,7.493-2.489,8.814-6.205 c1.191-3.134,1.746-6.302,1.746-9.961C100.032,24.024,86.709,10.701,70.333,10.701z" opacity=".35"/><path fill="#f2f2f2" d="M68.333,8.701c-1.015,0-2.259,0-3.641,0.223c-4.811,0.387-8.659,4.51-8.659,9.37 c0,2.686,1.139,5.106,2.951,6.821c-0.769,1.368-1.212,2.934-1.212,4.585c0,0.179,0.017,0.354,0.027,0.53 c-0.978,0.118-1.978,0.282-3.003,0.502c-0.59-3.458-2.282-5.644-3.604-6.872c-2.363-2.316-5.628-3.541-9.449-3.541 c-8.005,0-18.2,5.318-27.305,14.257C5.106,43.91-0.032,53.85-0.032,62.566c0,18.663,21.577,28.732,41.879,28.732 c26.275,0,44.586-15.856,44.586-30.086c0-2.504-0.537-4.863-1.547-7.016c0.823,0.236,1.688,0.37,2.586,0.37 c3.964,0,7.493-2.489,8.814-6.205c1.191-3.134,1.746-6.302,1.746-9.961C98.032,22.024,84.709,8.701,68.333,8.701z"/><path fill="#f4665c" d="M69.686,49.807c-1.16-0.387-1.933-0.58-1.353-2.127c1.353-3.287,1.547-6.186,0-8.313 c-2.707-3.867-10.246-3.673-18.753-0.193c0,0-2.707,1.16-1.933-0.967c1.353-4.253,1.16-7.733-0.967-9.666 c-4.64-4.64-17.013,0.193-27.646,10.633C11.108,47.1,6.468,55.413,6.468,62.566c0,13.92,17.786,22.233,35.379,22.233 c22.813,0,38.085-13.146,38.085-23.586C79.932,54.833,74.519,51.353,69.686,49.807"/><path fill="#40396e" d="M41.847,86.299c-17.878,0-36.879-8.318-36.879-23.732c0-7.381,4.619-16.066,13.006-24.453 C29.408,26.886,42.48,22.217,47.74,27.48c1.61,1.462,3.187,4.439,1.638,10.158c9.454-3.776,17.161-3.45,20.184,0.869 c1.76,2.419,1.819,5.7,0.164,9.73c0.104,0.037,0.215,0.074,0.312,0.105l0.114,0.038c7.169,2.297,11.281,6.974,11.281,12.832 C81.433,73.055,64.503,86.299,41.847,86.299z M41.637,28.294c-5.144,0-13.397,3.944-21.552,11.95 C12.274,48.055,7.968,55.986,7.968,62.566c0,12.978,17.226,20.732,33.879,20.732c22.667,0,36.586-12.864,36.586-22.086 c0-6.119-5.767-8.877-9.204-9.978c-0.006-0.002-0.012-0.004-0.018-0.006l-0.118-0.039c-0.782-0.259-1.755-0.582-2.225-1.564 c-0.485-1.017-0.074-2.112,0.061-2.473c1.255-3.052,1.313-5.36,0.191-6.904c-2.167-3.092-8.981-2.957-16.972,0.313 c-0.676,0.289-2.413,0.872-3.505-0.159c-0.387-0.366-0.954-1.205-0.406-2.709c0.681-2.145,1.542-6.127-0.566-8.044 C44.768,28.748,43.381,28.294,41.637,28.294z M49.006,38.891L49.006,38.891L49.006,38.891z"/><path fill="#f2f2f2" d="M40.88,78.806c-13.726,1.353-25.712-4.833-26.679-13.726s9.666-17.399,23.393-18.753 c13.92-1.353,25.712,4.833,26.679,13.726C65.239,69.139,54.8,77.452,40.88,78.806"/><path fill="#40396e" d="M43.007,62.373c-0.58,0.967-1.74,1.547-2.707,1.16c-0.967-0.387-1.16-1.547-0.773-2.513 c0.58-0.967,1.74-1.547,2.513-0.967C43.2,60.246,43.394,61.213,43.007,62.373 M36.627,67.013c-1.353,1.933-4.447,2.9-6.766,1.933 c-2.32-0.967-2.9-3.287-1.547-5.026c1.353-1.933,4.253-2.707,6.573-1.933C37.4,62.76,38.174,65.079,36.627,67.013 M42.234,52.32 c-6.766-1.74-14.306,1.547-17.206,7.346c-2.9,5.993-0.193,12.566,6.766,14.693c6.96,2.32,15.273-1.16,18.173-7.54 C52.867,60.633,49.193,54.06,42.234,52.32"/><path fill="#f9b84f" d="M90.179,46.133L90.179,46.133c-0.387,1.16-1.547,1.933-2.707,1.933c-1.547,0-2.9-1.353-2.9-2.9 c0-0.387,0-0.773,0.193-1.16c0.58-1.74,0.967-3.673,0.967-5.606c0-9.666-7.733-17.399-17.399-17.399c-0.773,0-1.74,0-2.513,0.193 c0,0,0,0-0.193,0h-0.193c-1.547,0-2.9-1.353-2.9-2.9s1.353-2.9,2.9-2.9l0,0c0.967-0.193,1.933-0.193,2.9-0.193 c12.76,0,23.199,10.44,23.199,23.199C91.532,41.107,91.145,43.62,90.179,46.133z"/><path fill="#40396e" d="M87.472,49.567c-2.385,0-4.399-2.015-4.399-4.4c0-0.45,0-1.058,0.298-1.718 c0.564-1.719,0.862-3.463,0.862-5.049c0-8.767-7.133-15.899-15.899-15.899c-0.693,0-1.556,0-2.149,0.148 c-0.119,0.03-0.241,0.045-0.364,0.045h-0.387c-2.385,0-4.399-2.015-4.399-4.4c0-2.332,1.927-4.311,4.241-4.397 c1.062-0.196,2.077-0.196,3.059-0.196c13.619,0,24.699,11.08,24.699,24.699c0,3.054-0.458,5.674-1.442,8.243 C90.998,48.367,89.311,49.567,87.472,49.567z M68.333,19.501c10.421,0,18.899,8.478,18.899,18.899c0,1.93-0.361,4.033-1.044,6.081 c-0.022,0.067-0.05,0.133-0.081,0.196c-0.035,0.07-0.035,0.292-0.035,0.489c0,0.72,0.68,1.4,1.399,1.4 c0.551,0,1.114-0.399,1.284-0.908c0.007-0.022,0.015-0.043,0.022-0.064c0.855-2.223,1.254-4.509,1.254-7.194 c0-11.965-9.734-21.699-21.699-21.699c-0.918,0-1.785,0-2.606,0.164c-0.097,0.02-0.195,0.029-0.294,0.029 c-0.72,0-1.399,0.68-1.399,1.4s0.68,1.4,1.399,1.4h0.216C66.551,19.501,67.533,19.501,68.333,19.501z"/><g><path fill="#f9b84f" d="M79.932,38.4c0-6.38-5.22-11.6-11.6-11.6c-0.387,0-0.773,0-1.353,0c0,0,0,0-0.193,0 c-1.353,0.193-2.513,1.353-2.513,2.9c0,1.547,1.353,2.9,2.9,2.9h0.193l0,0c0.193,0,0.58,0,0.773,0c3.287,0,5.8,2.513,5.8,5.8 c0,0.58-0.193,1.353-0.387,1.933l0,0c-0.193,0.387-0.193,0.58-0.193,0.967c0,1.547,1.353,2.9,2.9,2.9 c1.16,0,2.127-0.773,2.707-1.74l0,0v-0.193c0-0.193,0-0.193,0.193-0.387C79.739,40.72,79.932,39.56,79.932,38.4z"/><path fill="#40396e" d="M76.259,45.7c-2.385,0-4.399-2.015-4.399-4.4c0-0.435,0-0.884,0.299-1.527 c0.172-0.536,0.281-1.067,0.281-1.373c0-2.451-1.849-4.3-4.3-4.3h-0.967c-2.386,0-4.4-2.015-4.4-4.4 c0-2.19,1.635-4.075,3.802-4.385c0.07-0.01,0.141-0.015,0.212-0.015h1.547c7.224,0,13.1,5.876,13.1,13.1 c0,1.539-0.305,2.897-0.932,4.151c-0.015,0.028-0.029,0.056-0.045,0.083c-0.025,0.211-0.095,0.415-0.204,0.598 C79.324,44.778,77.832,45.7,76.259,45.7z M66.913,28.301c-0.567,0.12-1.141,0.633-1.141,1.4c0,0.72,0.681,1.4,1.4,1.4h0.967 c4.094,0,7.3,3.207,7.3,7.3c0,0.885-0.291,1.889-0.464,2.408c-0.022,0.067-0.05,0.133-0.081,0.196 c-0.04,0.127-0.035,0.201-0.035,0.296c0,0.72,0.68,1.4,1.399,1.4c0.55,0,0.977-0.411,1.223-0.725 c0.047-0.398,0.194-0.679,0.423-0.947c0.359-0.787,0.528-1.628,0.528-2.628c0-5.569-4.53-10.1-10.1-10.1H66.913z M79.159,41.88 h0.01H79.159z"/></g></svg>